<mxfile host="app.diagrams.net" agent="Mozilla/5.0 (Windows NT 10.0; Win64; x64) AppleWebKit/537.36 (KHTML, like Gecko) Chrome/131.0.0.0 Safari/537.36" version="26.0.9">
  <diagram name="Page-1" id="B7Mi7TAeXYOWGqywBbTI">
    <mxGraphModel dx="2736" dy="1013" grid="1" gridSize="10" guides="1" tooltips="1" connect="1" arrows="1" fold="1" page="1" pageScale="1" pageWidth="827" pageHeight="1169" math="0" shadow="0">
      <root>
        <mxCell id="0" />
        <mxCell id="1" parent="0" />
        <mxCell id="opE6E6PZhBfmHnPTdG0A-1" value="ลูกค้า" style="rounded=0;whiteSpace=wrap;html=1;" vertex="1" parent="1">
          <mxGeometry x="-20" y="370" width="90" height="40" as="geometry" />
        </mxCell>
        <mxCell id="opE6E6PZhBfmHnPTdG0A-2" value="4.1" style="swimlane;childLayout=stackLayout;horizontal=1;startSize=30;horizontalStack=0;rounded=1;fontSize=14;fontStyle=0;strokeWidth=2;resizeParent=0;resizeLast=1;shadow=0;dashed=0;align=center;arcSize=20;whiteSpace=wrap;html=1;swimlaneLine=1;glass=0;" vertex="1" parent="1">
          <mxGeometry x="319" y="320" width="190" height="120" as="geometry" />
        </mxCell>
        <mxCell id="opE6E6PZhBfmHnPTdG0A-3" value="เพิ่มการจอง" style="text;html=1;align=center;verticalAlign=middle;resizable=0;points=[];autosize=1;strokeColor=none;fillColor=none;" vertex="1" parent="opE6E6PZhBfmHnPTdG0A-2">
          <mxGeometry y="30" width="190" height="90" as="geometry" />
        </mxCell>
        <mxCell id="opE6E6PZhBfmHnPTdG0A-4" value="4.3" style="swimlane;childLayout=stackLayout;horizontal=1;startSize=30;horizontalStack=0;rounded=1;fontSize=14;fontStyle=0;strokeWidth=2;resizeParent=0;resizeLast=1;shadow=0;dashed=0;align=center;arcSize=20;whiteSpace=wrap;html=1;swimlaneLine=1;glass=0;" vertex="1" parent="1">
          <mxGeometry x="319" y="790" width="190" height="120" as="geometry" />
        </mxCell>
        <mxCell id="opE6E6PZhBfmHnPTdG0A-5" value="จัดการสถานะการจอง" style="text;html=1;align=center;verticalAlign=middle;resizable=0;points=[];autosize=1;strokeColor=none;fillColor=none;" vertex="1" parent="opE6E6PZhBfmHnPTdG0A-4">
          <mxGeometry y="30" width="190" height="90" as="geometry" />
        </mxCell>
        <mxCell id="opE6E6PZhBfmHnPTdG0A-6" value="4.2" style="swimlane;childLayout=stackLayout;horizontal=1;startSize=30;horizontalStack=0;rounded=1;fontSize=14;fontStyle=0;strokeWidth=2;resizeParent=0;resizeLast=1;shadow=0;dashed=0;align=center;arcSize=20;whiteSpace=wrap;html=1;swimlaneLine=1;glass=0;" vertex="1" parent="1">
          <mxGeometry x="319" y="620" width="190" height="120" as="geometry" />
        </mxCell>
        <mxCell id="opE6E6PZhBfmHnPTdG0A-7" value="ตรวจสอบสถานะการจอง" style="text;html=1;align=center;verticalAlign=middle;resizable=0;points=[];autosize=1;strokeColor=none;fillColor=none;" vertex="1" parent="opE6E6PZhBfmHnPTdG0A-6">
          <mxGeometry y="30" width="190" height="90" as="geometry" />
        </mxCell>
        <mxCell id="opE6E6PZhBfmHnPTdG0A-8" value="หมวดหมู่" style="shape=partialRectangle;whiteSpace=wrap;html=1;left=0;right=0;fillColor=none;" vertex="1" parent="1">
          <mxGeometry x="830.16" y="270" width="120" height="40" as="geometry" />
        </mxCell>
        <mxCell id="opE6E6PZhBfmHnPTdG0A-9" value="D1" style="rounded=0;whiteSpace=wrap;html=1;" vertex="1" parent="1">
          <mxGeometry x="790.16" y="270" width="40" height="40" as="geometry" />
        </mxCell>
        <mxCell id="opE6E6PZhBfmHnPTdG0A-10" value="บริการ" style="shape=partialRectangle;whiteSpace=wrap;html=1;left=0;right=0;fillColor=none;" vertex="1" parent="1">
          <mxGeometry x="830.16" y="320" width="120" height="40" as="geometry" />
        </mxCell>
        <mxCell id="opE6E6PZhBfmHnPTdG0A-11" value="D2" style="rounded=0;whiteSpace=wrap;html=1;" vertex="1" parent="1">
          <mxGeometry x="790.16" y="320" width="40" height="40" as="geometry" />
        </mxCell>
        <mxCell id="opE6E6PZhBfmHnPTdG0A-12" value="แพ็กเกจ" style="shape=partialRectangle;whiteSpace=wrap;html=1;left=0;right=0;fillColor=none;" vertex="1" parent="1">
          <mxGeometry x="830.16" y="370" width="120" height="40" as="geometry" />
        </mxCell>
        <mxCell id="opE6E6PZhBfmHnPTdG0A-13" value="D3" style="rounded=0;whiteSpace=wrap;html=1;" vertex="1" parent="1">
          <mxGeometry x="790.16" y="370" width="40" height="40" as="geometry" />
        </mxCell>
        <mxCell id="opE6E6PZhBfmHnPTdG0A-14" value="พนักงาน" style="shape=partialRectangle;whiteSpace=wrap;html=1;left=0;right=0;fillColor=none;" vertex="1" parent="1">
          <mxGeometry x="830.16" y="420" width="120" height="40" as="geometry" />
        </mxCell>
        <mxCell id="opE6E6PZhBfmHnPTdG0A-15" value="D4" style="rounded=0;whiteSpace=wrap;html=1;" vertex="1" parent="1">
          <mxGeometry x="790.16" y="420" width="40" height="40" as="geometry" />
        </mxCell>
        <mxCell id="opE6E6PZhBfmHnPTdG0A-16" value="การจอง" style="shape=partialRectangle;whiteSpace=wrap;html=1;left=0;right=0;fillColor=none;" vertex="1" parent="1">
          <mxGeometry x="830.16" y="550" width="120" height="40" as="geometry" />
        </mxCell>
        <mxCell id="opE6E6PZhBfmHnPTdG0A-17" value="D6" style="rounded=0;whiteSpace=wrap;html=1;" vertex="1" parent="1">
          <mxGeometry x="790.16" y="550" width="40" height="40" as="geometry" />
        </mxCell>
        <mxCell id="opE6E6PZhBfmHnPTdG0A-18" value="ลูกค้า" style="shape=partialRectangle;whiteSpace=wrap;html=1;left=0;right=0;fillColor=none;" vertex="1" parent="1">
          <mxGeometry x="830.16" y="470" width="120" height="40" as="geometry" />
        </mxCell>
        <mxCell id="opE6E6PZhBfmHnPTdG0A-19" value="D5" style="rounded=0;whiteSpace=wrap;html=1;" vertex="1" parent="1">
          <mxGeometry x="790.16" y="470" width="40" height="40" as="geometry" />
        </mxCell>
        <mxCell id="opE6E6PZhBfmHnPTdG0A-20" value="" style="endArrow=classic;startArrow=classic;html=1;rounded=0;exitX=1;exitY=0.5;exitDx=0;exitDy=0;" edge="1" parent="1" source="opE6E6PZhBfmHnPTdG0A-1">
          <mxGeometry width="50" height="50" relative="1" as="geometry">
            <mxPoint x="520" y="440" as="sourcePoint" />
            <mxPoint x="320" y="390" as="targetPoint" />
          </mxGeometry>
        </mxCell>
        <mxCell id="opE6E6PZhBfmHnPTdG0A-21" value="เพิ่มการจอง" style="text;html=1;align=center;verticalAlign=middle;resizable=0;points=[];autosize=1;strokeColor=none;fillColor=none;" vertex="1" parent="1">
          <mxGeometry x="140" y="360" width="80" height="30" as="geometry" />
        </mxCell>
        <mxCell id="opE6E6PZhBfmHnPTdG0A-27" value="" style="endArrow=classic;startArrow=classic;html=1;rounded=0;entryX=0;entryY=0.5;entryDx=0;entryDy=0;" edge="1" parent="1" target="opE6E6PZhBfmHnPTdG0A-17">
          <mxGeometry width="50" height="50" relative="1" as="geometry">
            <mxPoint x="471" y="440" as="sourcePoint" />
            <mxPoint x="570" y="490" as="targetPoint" />
            <Array as="points">
              <mxPoint x="471" y="570" />
            </Array>
          </mxGeometry>
        </mxCell>
        <mxCell id="opE6E6PZhBfmHnPTdG0A-28" value="&lt;span style=&quot;color: rgb(0, 0, 0); font-family: Helvetica; font-size: 12px; font-style: normal; font-variant-ligatures: normal; font-variant-caps: normal; font-weight: 400; letter-spacing: normal; orphans: 2; text-indent: 0px; text-transform: none; widows: 2; word-spacing: 0px; -webkit-text-stroke-width: 0px; white-space: normal; background-color: rgb(251, 251, 251); text-decoration-thickness: initial; text-decoration-style: initial; text-decoration-color: initial; float: none; display: inline !important;&quot;&gt;ข้อมูลบริการ&lt;/span&gt;" style="text;whiteSpace=wrap;html=1;verticalAlign=middle;align=center;" vertex="1" parent="1">
          <mxGeometry x="670" y="360" width="90" height="40" as="geometry" />
        </mxCell>
        <mxCell id="opE6E6PZhBfmHnPTdG0A-29" value="&lt;span style=&quot;color: rgb(0, 0, 0); font-family: Helvetica; font-size: 12px; font-style: normal; font-variant-ligatures: normal; font-variant-caps: normal; font-weight: 400; letter-spacing: normal; orphans: 2; text-indent: 0px; text-transform: none; widows: 2; word-spacing: 0px; -webkit-text-stroke-width: 0px; white-space: normal; background-color: rgb(251, 251, 251); text-decoration-thickness: initial; text-decoration-style: initial; text-decoration-color: initial; float: none; display: inline !important;&quot;&gt;ข้อมูลแพ็กเกจ&lt;/span&gt;" style="text;whiteSpace=wrap;html=1;verticalAlign=middle;align=center;" vertex="1" parent="1">
          <mxGeometry x="670" y="310" width="90" height="40" as="geometry" />
        </mxCell>
        <mxCell id="opE6E6PZhBfmHnPTdG0A-30" value="&lt;span style=&quot;color: rgb(0, 0, 0); font-family: Helvetica; font-size: 12px; font-style: normal; font-variant-ligatures: normal; font-variant-caps: normal; font-weight: 400; letter-spacing: normal; orphans: 2; text-indent: 0px; text-transform: none; widows: 2; word-spacing: 0px; -webkit-text-stroke-width: 0px; white-space: normal; background-color: rgb(251, 251, 251); text-decoration-thickness: initial; text-decoration-style: initial; text-decoration-color: initial; float: none; display: inline !important;&quot;&gt;ข้อมูลหมวดหมู่&lt;/span&gt;" style="text;whiteSpace=wrap;html=1;verticalAlign=middle;align=center;" vertex="1" parent="1">
          <mxGeometry x="670" y="260" width="90" height="40" as="geometry" />
        </mxCell>
        <mxCell id="opE6E6PZhBfmHnPTdG0A-31" value="&lt;span style=&quot;color: rgb(0, 0, 0); font-family: Helvetica; font-size: 12px; font-style: normal; font-variant-ligatures: normal; font-variant-caps: normal; font-weight: 400; letter-spacing: normal; orphans: 2; text-indent: 0px; text-transform: none; widows: 2; word-spacing: 0px; -webkit-text-stroke-width: 0px; white-space: normal; background-color: rgb(251, 251, 251); text-decoration-thickness: initial; text-decoration-style: initial; text-decoration-color: initial; float: none; display: inline !important;&quot;&gt;ข้อมูลลูกค้า&lt;/span&gt;" style="text;whiteSpace=wrap;html=1;verticalAlign=middle;align=center;" vertex="1" parent="1">
          <mxGeometry x="670" y="460" width="90" height="40" as="geometry" />
        </mxCell>
        <mxCell id="opE6E6PZhBfmHnPTdG0A-32" value="&lt;span style=&quot;color: rgb(0, 0, 0); font-family: Helvetica; font-size: 12px; font-style: normal; font-variant-ligatures: normal; font-variant-caps: normal; font-weight: 400; letter-spacing: normal; orphans: 2; text-indent: 0px; text-transform: none; widows: 2; word-spacing: 0px; -webkit-text-stroke-width: 0px; white-space: normal; background-color: rgb(251, 251, 251); text-decoration-thickness: initial; text-decoration-style: initial; text-decoration-color: initial; float: none; display: inline !important;&quot;&gt;ข้อมูลการจอง&lt;/span&gt;" style="text;whiteSpace=wrap;html=1;verticalAlign=middle;align=center;" vertex="1" parent="1">
          <mxGeometry x="600" y="540" width="90" height="40" as="geometry" />
        </mxCell>
        <mxCell id="opE6E6PZhBfmHnPTdG0A-33" value="&lt;span style=&quot;color: rgb(0, 0, 0); font-family: Helvetica; font-size: 12px; font-style: normal; font-variant-ligatures: normal; font-variant-caps: normal; font-weight: 400; letter-spacing: normal; orphans: 2; text-indent: 0px; text-transform: none; widows: 2; word-spacing: 0px; -webkit-text-stroke-width: 0px; white-space: normal; background-color: rgb(251, 251, 251); text-decoration-thickness: initial; text-decoration-style: initial; text-decoration-color: initial; float: none; display: inline !important;&quot;&gt;ข้อมูลพนักงาน&lt;/span&gt;" style="text;whiteSpace=wrap;html=1;verticalAlign=middle;align=center;" vertex="1" parent="1">
          <mxGeometry x="670" y="410" width="90" height="40" as="geometry" />
        </mxCell>
        <mxCell id="opE6E6PZhBfmHnPTdG0A-34" value="" style="endArrow=classic;startArrow=classic;html=1;rounded=0;entryX=0.5;entryY=1;entryDx=0;entryDy=0;exitX=0;exitY=0.5;exitDx=0;exitDy=0;" edge="1" parent="1" source="opE6E6PZhBfmHnPTdG0A-6" target="opE6E6PZhBfmHnPTdG0A-1">
          <mxGeometry width="50" height="50" relative="1" as="geometry">
            <mxPoint x="400" y="600" as="sourcePoint" />
            <mxPoint x="450" y="550" as="targetPoint" />
            <Array as="points">
              <mxPoint x="25" y="680" />
            </Array>
          </mxGeometry>
        </mxCell>
        <mxCell id="opE6E6PZhBfmHnPTdG0A-35" value="ตรวจสอบการจอง" style="text;html=1;align=center;verticalAlign=middle;resizable=0;points=[];autosize=1;strokeColor=none;fillColor=none;" vertex="1" parent="1">
          <mxGeometry x="125" y="650" width="110" height="30" as="geometry" />
        </mxCell>
        <mxCell id="opE6E6PZhBfmHnPTdG0A-36" value="" style="endArrow=classic;startArrow=classic;html=1;rounded=0;entryX=1;entryY=0.5;entryDx=0;entryDy=0;exitX=1;exitY=0.5;exitDx=0;exitDy=0;" edge="1" parent="1" source="opE6E6PZhBfmHnPTdG0A-6" target="opE6E6PZhBfmHnPTdG0A-16">
          <mxGeometry width="50" height="50" relative="1" as="geometry">
            <mxPoint x="520" y="690" as="sourcePoint" />
            <mxPoint x="760" y="590" as="targetPoint" />
            <Array as="points">
              <mxPoint x="980" y="680" />
              <mxPoint x="980" y="570" />
            </Array>
          </mxGeometry>
        </mxCell>
        <mxCell id="opE6E6PZhBfmHnPTdG0A-37" value="&lt;span style=&quot;color: rgb(0, 0, 0); font-family: Helvetica; font-size: 12px; font-style: normal; font-variant-ligatures: normal; font-variant-caps: normal; font-weight: 400; letter-spacing: normal; orphans: 2; text-indent: 0px; text-transform: none; widows: 2; word-spacing: 0px; -webkit-text-stroke-width: 0px; white-space: normal; background-color: rgb(251, 251, 251); text-decoration-thickness: initial; text-decoration-style: initial; text-decoration-color: initial; float: none; display: inline !important;&quot;&gt;ข้อมูลการจอง&lt;/span&gt;" style="text;whiteSpace=wrap;html=1;verticalAlign=middle;align=center;" vertex="1" parent="1">
          <mxGeometry x="680" y="645" width="90" height="40" as="geometry" />
        </mxCell>
        <mxCell id="opE6E6PZhBfmHnPTdG0A-38" value="ผู้ดูแลระบบ" style="rounded=0;whiteSpace=wrap;html=1;" vertex="1" parent="1">
          <mxGeometry x="-20" y="840" width="90" height="40" as="geometry" />
        </mxCell>
        <mxCell id="opE6E6PZhBfmHnPTdG0A-39" value="" style="endArrow=classic;startArrow=classic;html=1;rounded=0;exitX=1;exitY=0.5;exitDx=0;exitDy=0;entryX=0.001;entryY=0.442;entryDx=0;entryDy=0;entryPerimeter=0;" edge="1" parent="1" source="opE6E6PZhBfmHnPTdG0A-38" target="opE6E6PZhBfmHnPTdG0A-5">
          <mxGeometry width="50" height="50" relative="1" as="geometry">
            <mxPoint x="170" y="850" as="sourcePoint" />
            <mxPoint x="310" y="860" as="targetPoint" />
          </mxGeometry>
        </mxCell>
        <mxCell id="opE6E6PZhBfmHnPTdG0A-40" value="ยืนยันการจอง" style="text;html=1;align=center;verticalAlign=middle;resizable=0;points=[];autosize=1;strokeColor=none;fillColor=none;" vertex="1" parent="1">
          <mxGeometry x="145" y="835" width="90" height="30" as="geometry" />
        </mxCell>
        <mxCell id="opE6E6PZhBfmHnPTdG0A-41" value="การจอง" style="shape=partialRectangle;whiteSpace=wrap;html=1;left=0;right=0;fillColor=none;" vertex="1" parent="1">
          <mxGeometry x="830.16" y="840" width="120" height="40" as="geometry" />
        </mxCell>
        <mxCell id="opE6E6PZhBfmHnPTdG0A-42" value="D6" style="rounded=0;whiteSpace=wrap;html=1;" vertex="1" parent="1">
          <mxGeometry x="790.16" y="840" width="40" height="40" as="geometry" />
        </mxCell>
        <mxCell id="opE6E6PZhBfmHnPTdG0A-43" value="" style="endArrow=classic;startArrow=classic;html=1;rounded=0;exitX=1.002;exitY=0.453;exitDx=0;exitDy=0;exitPerimeter=0;entryX=0;entryY=0.5;entryDx=0;entryDy=0;" edge="1" parent="1" source="opE6E6PZhBfmHnPTdG0A-5" target="opE6E6PZhBfmHnPTdG0A-42">
          <mxGeometry width="50" height="50" relative="1" as="geometry">
            <mxPoint x="560" y="790" as="sourcePoint" />
            <mxPoint x="610" y="740" as="targetPoint" />
          </mxGeometry>
        </mxCell>
        <mxCell id="opE6E6PZhBfmHnPTdG0A-44" value="&lt;span style=&quot;color: rgb(0, 0, 0); font-family: Helvetica; font-size: 12px; font-style: normal; font-variant-ligatures: normal; font-variant-caps: normal; font-weight: 400; letter-spacing: normal; orphans: 2; text-indent: 0px; text-transform: none; widows: 2; word-spacing: 0px; -webkit-text-stroke-width: 0px; white-space: normal; background-color: rgb(251, 251, 251); text-decoration-thickness: initial; text-decoration-style: initial; text-decoration-color: initial; float: none; display: inline !important;&quot;&gt;ข้อมูลการจอง&lt;/span&gt;" style="text;whiteSpace=wrap;html=1;verticalAlign=middle;align=center;" vertex="1" parent="1">
          <mxGeometry x="600" y="830" width="90" height="40" as="geometry" />
        </mxCell>
        <mxCell id="opE6E6PZhBfmHnPTdG0A-45" value="4.4" style="swimlane;childLayout=stackLayout;horizontal=1;startSize=30;horizontalStack=0;rounded=1;fontSize=14;fontStyle=0;strokeWidth=2;resizeParent=0;resizeLast=1;shadow=0;dashed=0;align=center;arcSize=20;whiteSpace=wrap;html=1;swimlaneLine=1;glass=0;" vertex="1" parent="1">
          <mxGeometry x="319" y="950" width="190" height="120" as="geometry" />
        </mxCell>
        <mxCell id="opE6E6PZhBfmHnPTdG0A-46" value="รายงานสถานะการจอง" style="text;html=1;align=center;verticalAlign=middle;resizable=0;points=[];autosize=1;strokeColor=none;fillColor=none;" vertex="1" parent="opE6E6PZhBfmHnPTdG0A-45">
          <mxGeometry y="30" width="190" height="90" as="geometry" />
        </mxCell>
        <mxCell id="opE6E6PZhBfmHnPTdG0A-47" value="ลูกค้า" style="rounded=0;whiteSpace=wrap;html=1;" vertex="1" parent="1">
          <mxGeometry x="-20" y="1010" width="90" height="40" as="geometry" />
        </mxCell>
        <mxCell id="opE6E6PZhBfmHnPTdG0A-48" value="" style="endArrow=classic;startArrow=classic;html=1;rounded=0;exitX=1;exitY=0.5;exitDx=0;exitDy=0;entryX=0.001;entryY=0.442;entryDx=0;entryDy=0;entryPerimeter=0;" edge="1" parent="1">
          <mxGeometry width="50" height="50" relative="1" as="geometry">
            <mxPoint x="70" y="1029.57" as="sourcePoint" />
            <mxPoint x="319" y="1029.57" as="targetPoint" />
          </mxGeometry>
        </mxCell>
        <mxCell id="opE6E6PZhBfmHnPTdG0A-50" value="&lt;span style=&quot;color: rgb(0, 0, 0); font-family: Helvetica; font-size: 12px; font-style: normal; font-variant-ligatures: normal; font-variant-caps: normal; font-weight: 400; letter-spacing: normal; orphans: 2; text-indent: 0px; text-transform: none; widows: 2; word-spacing: 0px; -webkit-text-stroke-width: 0px; white-space: normal; background-color: rgb(251, 251, 251); text-decoration-thickness: initial; text-decoration-style: initial; text-decoration-color: initial; float: none; display: inline !important;&quot;&gt;รายงานข้อมูลการจอง&lt;/span&gt;" style="text;whiteSpace=wrap;html=1;verticalAlign=middle;align=center;" vertex="1" parent="1">
          <mxGeometry x="640" y="960" width="120" height="40" as="geometry" />
        </mxCell>
        <mxCell id="opE6E6PZhBfmHnPTdG0A-51" value="&lt;span style=&quot;color: rgb(0, 0, 0); font-family: Helvetica; font-size: 12px; font-style: normal; font-variant-ligatures: normal; font-variant-caps: normal; font-weight: 400; letter-spacing: normal; orphans: 2; text-indent: 0px; text-transform: none; widows: 2; word-spacing: 0px; -webkit-text-stroke-width: 0px; white-space: normal; background-color: rgb(251, 251, 251); text-decoration-thickness: initial; text-decoration-style: initial; text-decoration-color: initial; float: none; display: inline !important;&quot;&gt;ข้อมูลการจอง&lt;/span&gt;" style="text;whiteSpace=wrap;html=1;verticalAlign=middle;align=center;" vertex="1" parent="1">
          <mxGeometry x="145" y="1000" width="90" height="40" as="geometry" />
        </mxCell>
        <mxCell id="opE6E6PZhBfmHnPTdG0A-52" value="" style="endArrow=classic;html=1;rounded=0;exitX=0;exitY=0.5;exitDx=0;exitDy=0;" edge="1" parent="1" source="opE6E6PZhBfmHnPTdG0A-9">
          <mxGeometry width="50" height="50" relative="1" as="geometry">
            <mxPoint x="450" y="470" as="sourcePoint" />
            <mxPoint x="510" y="390" as="targetPoint" />
            <Array as="points">
              <mxPoint x="640" y="290" />
              <mxPoint x="640" y="390" />
            </Array>
          </mxGeometry>
        </mxCell>
        <mxCell id="opE6E6PZhBfmHnPTdG0A-53" value="" style="endArrow=classic;html=1;rounded=0;exitX=0;exitY=0.5;exitDx=0;exitDy=0;" edge="1" parent="1" source="opE6E6PZhBfmHnPTdG0A-11">
          <mxGeometry width="50" height="50" relative="1" as="geometry">
            <mxPoint x="450" y="470" as="sourcePoint" />
            <mxPoint x="510" y="390" as="targetPoint" />
            <Array as="points">
              <mxPoint x="640" y="340" />
              <mxPoint x="640" y="390" />
            </Array>
          </mxGeometry>
        </mxCell>
        <mxCell id="opE6E6PZhBfmHnPTdG0A-54" value="" style="endArrow=classic;html=1;rounded=0;exitX=0;exitY=0.5;exitDx=0;exitDy=0;" edge="1" parent="1" source="opE6E6PZhBfmHnPTdG0A-13">
          <mxGeometry width="50" height="50" relative="1" as="geometry">
            <mxPoint x="450" y="470" as="sourcePoint" />
            <mxPoint x="510" y="390" as="targetPoint" />
          </mxGeometry>
        </mxCell>
        <mxCell id="opE6E6PZhBfmHnPTdG0A-55" value="" style="endArrow=classic;html=1;rounded=0;exitX=0;exitY=0.5;exitDx=0;exitDy=0;" edge="1" parent="1" source="opE6E6PZhBfmHnPTdG0A-15">
          <mxGeometry width="50" height="50" relative="1" as="geometry">
            <mxPoint x="620" y="460" as="sourcePoint" />
            <mxPoint x="510" y="390" as="targetPoint" />
            <Array as="points">
              <mxPoint x="640" y="440" />
              <mxPoint x="640" y="390" />
            </Array>
          </mxGeometry>
        </mxCell>
        <mxCell id="opE6E6PZhBfmHnPTdG0A-56" value="" style="endArrow=classic;html=1;rounded=0;exitX=0;exitY=0.5;exitDx=0;exitDy=0;" edge="1" parent="1" source="opE6E6PZhBfmHnPTdG0A-19">
          <mxGeometry width="50" height="50" relative="1" as="geometry">
            <mxPoint x="620" y="460" as="sourcePoint" />
            <mxPoint x="510" y="390" as="targetPoint" />
            <Array as="points">
              <mxPoint x="640" y="490" />
              <mxPoint x="640" y="390" />
            </Array>
          </mxGeometry>
        </mxCell>
        <mxCell id="opE6E6PZhBfmHnPTdG0A-57" value="" style="endArrow=classic;html=1;rounded=0;exitX=1;exitY=0.5;exitDx=0;exitDy=0;" edge="1" parent="1" source="opE6E6PZhBfmHnPTdG0A-41">
          <mxGeometry width="50" height="50" relative="1" as="geometry">
            <mxPoint x="670" y="870" as="sourcePoint" />
            <mxPoint x="510" y="990" as="targetPoint" />
            <Array as="points">
              <mxPoint x="980" y="860" />
              <mxPoint x="980" y="990" />
            </Array>
          </mxGeometry>
        </mxCell>
        <mxCell id="opE6E6PZhBfmHnPTdG0A-58" value="" style="endArrow=classic;startArrow=classic;html=1;rounded=0;entryX=0.5;entryY=1;entryDx=0;entryDy=0;" edge="1" parent="1" target="opE6E6PZhBfmHnPTdG0A-38">
          <mxGeometry width="50" height="50" relative="1" as="geometry">
            <mxPoint x="320" y="990" as="sourcePoint" />
            <mxPoint x="370" y="910" as="targetPoint" />
            <Array as="points">
              <mxPoint x="25" y="990" />
            </Array>
          </mxGeometry>
        </mxCell>
        <mxCell id="opE6E6PZhBfmHnPTdG0A-59" value="&lt;span style=&quot;color: rgb(0, 0, 0); font-family: Helvetica; font-size: 12px; font-style: normal; font-variant-ligatures: normal; font-variant-caps: normal; font-weight: 400; letter-spacing: normal; orphans: 2; text-indent: 0px; text-transform: none; widows: 2; word-spacing: 0px; -webkit-text-stroke-width: 0px; white-space: normal; background-color: rgb(251, 251, 251); text-decoration-thickness: initial; text-decoration-style: initial; text-decoration-color: initial; float: none; display: inline !important;&quot;&gt;ข้อมูลการจอง&lt;/span&gt;" style="text;whiteSpace=wrap;html=1;verticalAlign=middle;align=center;" vertex="1" parent="1">
          <mxGeometry x="145" y="960" width="90" height="40" as="geometry" />
        </mxCell>
        <mxCell id="opE6E6PZhBfmHnPTdG0A-60" value="" style="endArrow=classic;html=1;rounded=0;exitX=1;exitY=0.5;exitDx=0;exitDy=0;" edge="1" parent="1" source="opE6E6PZhBfmHnPTdG0A-18">
          <mxGeometry width="50" height="50" relative="1" as="geometry">
            <mxPoint x="1120" y="580" as="sourcePoint" />
            <mxPoint x="510" y="1030" as="targetPoint" />
            <Array as="points">
              <mxPoint x="1030" y="490" />
              <mxPoint x="1030" y="1030" />
            </Array>
          </mxGeometry>
        </mxCell>
        <mxCell id="opE6E6PZhBfmHnPTdG0A-62" value="" style="endArrow=none;html=1;rounded=0;exitX=1;exitY=0.5;exitDx=0;exitDy=0;" edge="1" parent="1" source="opE6E6PZhBfmHnPTdG0A-14">
          <mxGeometry width="50" height="50" relative="1" as="geometry">
            <mxPoint x="910" y="730" as="sourcePoint" />
            <mxPoint x="1030" y="490" as="targetPoint" />
            <Array as="points">
              <mxPoint x="1030" y="440" />
            </Array>
          </mxGeometry>
        </mxCell>
        <mxCell id="opE6E6PZhBfmHnPTdG0A-63" value="" style="endArrow=none;html=1;rounded=0;exitX=1;exitY=0.5;exitDx=0;exitDy=0;" edge="1" parent="1">
          <mxGeometry width="50" height="50" relative="1" as="geometry">
            <mxPoint x="950.16" y="390" as="sourcePoint" />
            <mxPoint x="1030.16" y="440" as="targetPoint" />
            <Array as="points">
              <mxPoint x="1030.16" y="390" />
            </Array>
          </mxGeometry>
        </mxCell>
        <mxCell id="opE6E6PZhBfmHnPTdG0A-64" value="" style="endArrow=none;html=1;rounded=0;exitX=1;exitY=0.5;exitDx=0;exitDy=0;" edge="1" parent="1">
          <mxGeometry width="50" height="50" relative="1" as="geometry">
            <mxPoint x="950.16" y="340" as="sourcePoint" />
            <mxPoint x="1030.16" y="390" as="targetPoint" />
            <Array as="points">
              <mxPoint x="1030.16" y="340" />
            </Array>
          </mxGeometry>
        </mxCell>
        <mxCell id="opE6E6PZhBfmHnPTdG0A-65" value="" style="endArrow=none;html=1;rounded=0;exitX=1;exitY=0.5;exitDx=0;exitDy=0;" edge="1" parent="1">
          <mxGeometry width="50" height="50" relative="1" as="geometry">
            <mxPoint x="950.16" y="290" as="sourcePoint" />
            <mxPoint x="1030.16" y="340" as="targetPoint" />
            <Array as="points">
              <mxPoint x="1030.16" y="290" />
            </Array>
          </mxGeometry>
        </mxCell>
      </root>
    </mxGraphModel>
  </diagram>
</mxfile>
